<svg width="29" height="29" viewBox="0 0 29 29" fill="none" xmlns="http://www.w3.org/2000/svg">
<rect x="1.0293" y="1.0625" width="27" height="27" rx="13.5" fill="white"/>
<rect x="1.0293" y="1.0625" width="27" height="27" rx="13.5" stroke="#909294"/>
<g clip-path="url(#clip0_1_30)">
<path fill-rule="evenodd" clip-rule="evenodd" d="M20.3782 10.1111C20.4261 10.0633 20.4641 10.0064 20.49 9.94385C20.5159 9.88129 20.5293 9.81423 20.5293 9.74652C20.5293 9.6788 20.5159 9.61174 20.49 9.54918C20.4641 9.48662 20.4261 9.42977 20.3782 9.38189C20.3304 9.334 20.2735 9.29602 20.211 9.2701C20.1484 9.24419 20.0813 9.23085 20.0136 9.23085C19.9459 9.23085 19.8788 9.24419 19.8163 9.2701C19.7537 9.29602 19.6969 9.334 19.649 9.38189L14.8635 14.1684L10.0779 9.38189C10.03 9.334 9.9732 9.29602 9.91064 9.2701C9.84807 9.24419 9.78102 9.23085 9.7133 9.23085C9.64558 9.23085 9.57852 9.24419 9.51596 9.2701C9.4534 9.29602 9.39655 9.334 9.34867 9.38189C9.30078 9.42977 9.2628 9.48662 9.23688 9.54918C9.21097 9.61174 9.19763 9.6788 9.19763 9.74652C9.19763 9.81423 9.21097 9.88129 9.23688 9.94385C9.2628 10.0064 9.30078 10.0633 9.34867 10.1111L14.1352 14.8967L9.34867 19.6822C9.25196 19.7789 9.19763 19.9101 9.19763 20.0468C9.19763 20.1836 9.25196 20.3148 9.34867 20.4115C9.44537 20.5082 9.57654 20.5625 9.7133 20.5625C9.85006 20.5625 9.98122 20.5082 10.0779 20.4115L14.8635 15.6249L19.649 20.4115C19.7457 20.5082 19.8769 20.5625 20.0136 20.5625C20.1504 20.5625 20.2815 20.5082 20.3782 20.4115C20.475 20.3148 20.5293 20.1836 20.5293 20.0468C20.5293 19.9101 20.475 19.7789 20.3782 19.6822L15.5917 14.8967L20.3782 10.1111Z" fill="#909294"/>
</g>
<defs>
<clipPath id="clip0_1_30">
<rect width="12" height="12" fill="white" transform="translate(8.5293 8.5625)"/>
</clipPath>
</defs>
</svg>
